<!--?xml version="1.0" standalone="no"?-->
              <svg id="sw-js-blob-svg" viewBox="0 0 100 100" xmlns="http://www.w3.org/2000/svg" version="1.1">
                    <defs> 
                        <linearGradient id="sw-gradient" x1="0" x2="1" y1="1" y2="0">
                            <stop id="stop1" stop-color="rgba(55, 192.421, 248, 1)" offset="0%"></stop>
                            <stop id="stop2" stop-color="rgba(235.837, 215.214, 181.172, 1)" offset="100%"></stop>
                        </linearGradient>
                    </defs>
                <path fill="url(#sw-gradient)" d="M17.7,-29.5C24.6,-26.6,33,-25.3,36.4,-20.6C39.8,-15.9,38.2,-8,38.1,-0.1C37.9,7.8,39.2,15.6,35.6,20C32.1,24.5,23.8,25.7,17.1,28.1C10.4,30.4,5.2,33.8,-1.4,36.2C-7.9,38.6,-15.9,39.9,-19.8,35.9C-23.6,32,-23.5,22.7,-26.9,15.8C-30.4,9,-37.4,4.5,-39.4,-1.2C-41.4,-6.8,-38.3,-13.6,-33.1,-17.3C-27.8,-21,-20.4,-21.7,-14.5,-25.1C-8.6,-28.6,-4.3,-34.8,0.5,-35.8C5.4,-36.7,10.8,-32.3,17.7,-29.5Z" width="100%" height="100%" transform="translate(50 50)" style="transition: all 0.3s ease 0s;" stroke-width="0"></path>
              </svg>