<?xml version="1.0" standalone="no"?>
<svg xmlns:xlink="http://www.w3.org/1999/xlink" id="wave" style="transform:rotate(180deg); transition: 0.3s" viewBox="0 0 1440 270" version="1.1" xmlns="http://www.w3.org/2000/svg"><defs><linearGradient id="sw-gradient-0" x1="0" x2="0" y1="1" y2="0"><stop stop-color="rgba(176.753, 200.371, 232.65, 1)" offset="0%"/><stop stop-color="rgba(184, 214, 255, 1)" offset="100%"/></linearGradient></defs><path style="transform:translate(0, 0px); opacity:1" fill="url(#sw-gradient-0)" d="M0,0L34.3,40.5C68.6,81,137,162,206,198C274.3,234,343,225,411,184.5C480,144,549,72,617,40.5C685.7,9,754,18,823,54C891.4,90,960,153,1029,171C1097.1,189,1166,162,1234,126C1302.9,90,1371,45,1440,63C1508.6,81,1577,162,1646,162C1714.3,162,1783,81,1851,67.5C1920,54,1989,108,2057,121.5C2125.7,135,2194,108,2263,94.5C2331.4,81,2400,81,2469,85.5C2537.1,90,2606,99,2674,126C2742.9,153,2811,198,2880,211.5C2948.6,225,3017,207,3086,193.5C3154.3,180,3223,171,3291,157.5C3360,144,3429,126,3497,99C3565.7,72,3634,36,3703,22.5C3771.4,9,3840,18,3909,18C3977.1,18,4046,9,4114,22.5C4182.9,36,4251,72,4320,85.5C4388.6,99,4457,90,4526,76.5C4594.3,63,4663,45,4731,67.5C4800,90,4869,153,4903,184.5L4937.1,216L4937.1,270L4902.9,270C4868.6,270,4800,270,4731,270C4662.9,270,4594,270,4526,270C4457.1,270,4389,270,4320,270C4251.4,270,4183,270,4114,270C4045.7,270,3977,270,3909,270C3840,270,3771,270,3703,270C3634.3,270,3566,270,3497,270C3428.6,270,3360,270,3291,270C3222.9,270,3154,270,3086,270C3017.1,270,2949,270,2880,270C2811.4,270,2743,270,2674,270C2605.7,270,2537,270,2469,270C2400,270,2331,270,2263,270C2194.3,270,2126,270,2057,270C1988.6,270,1920,270,1851,270C1782.9,270,1714,270,1646,270C1577.1,270,1509,270,1440,270C1371.4,270,1303,270,1234,270C1165.7,270,1097,270,1029,270C960,270,891,270,823,270C754.3,270,686,270,617,270C548.6,270,480,270,411,270C342.9,270,274,270,206,270C137.1,270,69,270,34,270L0,270Z"/><defs><linearGradient id="sw-gradient-1" x1="0" x2="0" y1="1" y2="0"><stop stop-color="rgba(184, 214, 255, 1)" offset="0%"/><stop stop-color="rgba(184, 214, 255, 1)" offset="100%"/></linearGradient></defs><path style="transform:translate(0, 50px); opacity:0.9" fill="url(#sw-gradient-1)" d="M0,81L34.3,67.5C68.6,54,137,27,206,31.5C274.3,36,343,72,411,108C480,144,549,180,617,184.5C685.7,189,754,162,823,162C891.4,162,960,189,1029,171C1097.1,153,1166,90,1234,90C1302.9,90,1371,153,1440,180C1508.6,207,1577,198,1646,189C1714.3,180,1783,171,1851,166.5C1920,162,1989,162,2057,135C2125.7,108,2194,54,2263,54C2331.4,54,2400,108,2469,130.5C2537.1,153,2606,144,2674,139.5C2742.9,135,2811,135,2880,144C2948.6,153,3017,171,3086,157.5C3154.3,144,3223,99,3291,76.5C3360,54,3429,54,3497,49.5C3565.7,45,3634,36,3703,67.5C3771.4,99,3840,171,3909,198C3977.1,225,4046,207,4114,207C4182.9,207,4251,225,4320,234C4388.6,243,4457,243,4526,238.5C4594.3,234,4663,225,4731,216C4800,207,4869,198,4903,193.5L4937.1,189L4937.1,270L4902.9,270C4868.6,270,4800,270,4731,270C4662.9,270,4594,270,4526,270C4457.1,270,4389,270,4320,270C4251.4,270,4183,270,4114,270C4045.7,270,3977,270,3909,270C3840,270,3771,270,3703,270C3634.3,270,3566,270,3497,270C3428.6,270,3360,270,3291,270C3222.9,270,3154,270,3086,270C3017.1,270,2949,270,2880,270C2811.4,270,2743,270,2674,270C2605.7,270,2537,270,2469,270C2400,270,2331,270,2263,270C2194.3,270,2126,270,2057,270C1988.6,270,1920,270,1851,270C1782.9,270,1714,270,1646,270C1577.1,270,1509,270,1440,270C1371.4,270,1303,270,1234,270C1165.7,270,1097,270,1029,270C960,270,891,270,823,270C754.3,270,686,270,617,270C548.6,270,480,270,411,270C342.9,270,274,270,206,270C137.1,270,69,270,34,270L0,270Z"/></svg>